<?xml version="1.0" encoding="UTF-8"?>
<!DOCTYPE svg PUBLIC "-//W3C//DTD SVG 1.1//EN" "http://www.w3.org/Graphics/SVG/1.1/DTD/svg11.dtd">
<svg xmlns="http://www.w3.org/2000/svg" version="1.1" width="600px" height="600px" style="shape-rendering:geometricPrecision; text-rendering:geometricPrecision; image-rendering:optimizeQuality; fill-rule:evenodd; clip-rule:evenodd" xmlns:xlink="http://www.w3.org/1999/xlink">
<g><path style="opacity:1" fill="#fefefe" d="M -0.5,-0.5 C 199.5,-0.5 399.5,-0.5 599.5,-0.5C 599.5,199.5 599.5,399.5 599.5,599.5C 399.5,599.5 199.5,599.5 -0.5,599.5C -0.5,399.5 -0.5,199.5 -0.5,-0.5 Z"/></g>
<g><path style="opacity:1" fill="#6965db" d="M 559.5,105.5 C 558.111,110.269 557.444,115.269 557.5,120.5C 552.451,157.083 544.285,193.083 533,228.5C 530.595,231.001 528.095,233.501 525.5,236C 469.665,277.606 415.665,321.606 363.5,368C 293.346,431.482 225.013,497.148 158.5,565C 155.506,565.513 152.839,566.68 150.5,568.5C 149.062,568.281 147.729,567.781 146.5,567C 115.459,540.291 84.1262,513.957 52.5,488C 50.1122,485.95 48.1122,483.616 46.5,481C 46.7074,479.05 47.7074,477.884 49.5,477.5C 52.3149,478.126 54.8149,479.46 57,481.5C 56.5735,478.879 55.0735,476.879 52.5,475.5C 48.2404,468.512 43.2404,467.845 37.5,473.5C 34.0254,472.857 32.8588,470.857 34,467.5C 35.8333,465.167 37.6667,462.833 39.5,460.5C 38.4798,458.568 38.3131,456.568 39,454.5C 82.7921,413.377 124.459,370.377 164,325.5C 213.667,267.833 263.333,210.167 313,152.5C 330.333,130.5 347.667,108.5 365,86.5C 365.333,84.5 365.667,82.5 366,80.5C 369.364,79.2607 372.864,78.5941 376.5,78.5C 376.244,76.2075 376.577,74.0408 377.5,72C 387.692,66.936 398.359,63.2693 409.5,61C 455.825,49.1675 502.492,38.8342 549.5,30C 552.833,29.3333 556.167,29.3333 559.5,30C 562.479,34.2276 561.479,37.3942 556.5,39.5C 561.271,43.3747 563.604,48.3747 563.5,54.5C 561.579,71.4581 560.245,88.4581 559.5,105.5 Z"/></g>
<g><path style="opacity:1" fill="#6965db" d="M 34.5,40.5 C 53.934,46.1083 73.6006,50.9417 93.5,55C 123.325,59.9149 152.992,65.5816 182.5,72C 209.357,97.1911 235.857,122.691 262,148.5C 263.048,152.48 261.715,155.48 258,157.5C 257.562,160.376 256.562,163.043 255,165.5C 226.768,204.411 196.268,241.578 163.5,277C 160.167,277.667 156.833,277.667 153.5,277C 125.789,255.629 98.9554,233.129 73,209.5C 66.276,189.326 59.9427,168.992 54,148.5C 47.9352,116.239 40.6019,84.2386 32,52.5C 30.7734,47.938 31.6067,43.938 34.5,40.5 Z"/></g>
<g><path style="opacity:1" fill="#eae9f9" d="M 47.5,59.5 C 48.675,59.281 49.675,59.6143 50.5,60.5C 52.4968,64.6569 53.9968,68.9903 55,73.5C 58.9766,92.0203 61.6432,110.687 63,129.5C 58.2771,106.05 53.1104,82.7169 47.5,59.5 Z"/></g>
<g><path style="opacity:1" fill="#b1aeec" d="M 157.5,74.5 C 156.508,74.3284 155.842,74.6618 155.5,75.5C 153.287,75.152 151.287,74.3187 149.5,73C 152.364,72.8068 155.03,73.3068 157.5,74.5 Z"/></g>
<g><path style="opacity:1" fill="#f0effb" d="M 155.5,75.5 C 155.842,74.6618 156.508,74.3284 157.5,74.5C 164.166,75.5996 170.833,76.7663 177.5,78C 182.5,82.3333 187.5,86.6667 192.5,91C 180.252,85.8833 167.919,80.7166 155.5,75.5 Z"/></g>
<g><path style="opacity:1" fill="#d0cef3" d="M 559.5,105.5 C 559.556,110.731 558.889,115.731 557.5,120.5C 557.444,115.269 558.111,110.269 559.5,105.5 Z"/></g>
<g><path style="opacity:1" fill="#fdfdfe" d="M 434.5,126.5 C 454.309,127.478 467.809,137.144 475,155.5C 476.33,183.17 463.163,196.67 435.5,196C 414.359,187.225 407.192,172.058 414,150.5C 418.358,143.309 424.191,137.642 431.5,133.5C 432.132,130.939 433.132,128.605 434.5,126.5 Z"/></g>
<g><path style="opacity:1" fill="#dfdef7" d="M 337.5,154.5 C 337.737,153.209 337.404,152.209 336.5,151.5C 346.888,138.607 356.721,125.274 366,111.5C 366.654,110.304 367.154,110.304 367.5,111.5C 357.442,125.875 347.442,140.208 337.5,154.5 Z"/></g>
<g><path style="opacity:1" fill="#f6f5fc" d="M 336.5,151.5 C 337.404,152.209 337.737,153.209 337.5,154.5C 321.371,178.805 303.871,202.138 285,224.5C 250.08,266.091 214.413,307.091 178,347.5C 138.5,385.667 99,423.833 59.5,462C 58.5509,462.617 57.7175,462.451 57,461.5C 56.3653,459.365 56.6986,457.365 58,455.5C 158.962,360.936 251.796,259.603 336.5,151.5 Z"/></g>
<g><path style="opacity:1" fill="#f4f3fc" d="M 456.5,280.5 C 456.167,280.5 455.833,280.5 455.5,280.5C 475.841,261.328 496.674,242.662 518,224.5C 521.779,219.277 524.779,213.61 527,207.5C 528.333,198.833 529.667,190.167 531,181.5C 533.995,176.194 536.828,176.194 539.5,181.5C 535.638,196.587 531.471,211.587 527,226.5C 503.054,243.949 479.554,261.949 456.5,280.5 Z"/></g>
<g><path style="opacity:1" fill="#eae9f9" d="M 176.5,326.5 C 175.833,326.5 175.167,326.5 174.5,326.5C 228.246,265.923 281.079,204.59 333,142.5C 333.667,143.167 333.667,143.833 333,144.5C 283.242,207.102 231.076,267.769 176.5,326.5 Z"/></g>
<g><path style="opacity:1" fill="#bab7ee" d="M 455.5,280.5 C 455.833,280.5 456.167,280.5 456.5,280.5C 453.878,282.782 451.212,285.115 448.5,287.5C 449.532,284.461 451.865,282.128 455.5,280.5 Z"/></g>
<g><path style="opacity:1" fill="#cac8f1" d="M 174.5,326.5 C 175.167,326.5 175.833,326.5 176.5,326.5C 171.833,331.5 167.167,336.5 162.5,341.5C 162.167,341.5 161.833,341.5 161.5,341.5C 165.466,336.199 169.8,331.199 174.5,326.5 Z"/></g>
<g><path style="opacity:1" fill="#6965db" d="M 448.5,339.5 C 449.873,339.343 451.207,339.51 452.5,340C 483.431,372.262 512.931,405.762 541,440.5C 549.054,450.888 556.721,461.554 564,472.5C 570.476,474.606 571.143,477.939 566,482.5C 544.667,505.833 523.333,529.167 502,552.5C 498.955,554.781 495.788,556.781 492.5,558.5C 489.367,557.139 486.033,556.306 482.5,556C 479.5,552.333 476.5,548.667 473.5,545C 429.841,512.015 387.341,477.515 346,441.5C 345.333,439.833 345.333,438.167 346,436.5C 353.802,427.697 361.969,419.197 370.5,411C 368.016,408.716 367.849,406.216 370,403.5C 394.126,379.395 420.293,358.062 448.5,339.5 Z"/></g>
<g><path style="opacity:1" fill="#9f9ce7" d="M 161.5,341.5 C 161.833,341.5 162.167,341.5 162.5,341.5C 158.87,345.631 155.037,349.631 151,353.5C 153.469,348.847 156.969,344.847 161.5,341.5 Z"/></g>
<g><path style="opacity:1" fill="#cfcdf3" d="M 388.5,407.5 C 388.5,406.833 388.167,406.5 387.5,406.5C 397.447,396.06 397.781,396.393 388.5,407.5 Z"/></g>
<g><path style="opacity:1" fill="#f7f6fd" d="M 387.5,406.5 C 388.167,406.5 388.5,406.833 388.5,407.5C 379.857,418.119 373.857,430.119 370.5,443.5C 370.515,445.634 371.015,447.634 372,449.5C 376.36,453.032 380.527,456.699 384.5,460.5C 374.316,453.901 364.649,446.568 355.5,438.5C 356.861,436.972 358.028,435.305 359,433.5C 368.672,424.661 378.172,415.661 387.5,406.5 Z"/></g>
<g><path style="opacity:1" fill="#e1dff7" d="M 238.5,473.5 C 238.167,473.5 237.833,473.5 237.5,473.5C 259.212,449.121 282.545,426.454 307.5,405.5C 285.474,428.521 262.474,451.188 238.5,473.5 Z"/></g>
<g><path style="opacity:1" fill="#aaa8ea" d="M 384.5,460.5 C 386.544,461.031 388.211,462.198 389.5,464C 387.228,463.923 385.562,462.757 384.5,460.5 Z"/></g>
<g><path style="opacity:1" fill="#cccaf2" d="M 52.5,475.5 C 55.0735,476.879 56.5735,478.879 57,481.5C 54.8149,479.46 52.3149,478.126 49.5,477.5C 50.5,476.833 51.5,476.167 52.5,475.5 Z"/></g>
<g><path style="opacity:1" fill="#adaaeb" d="M 237.5,473.5 C 237.833,473.5 238.167,473.5 238.5,473.5C 232.87,479.631 227.036,485.631 221,491.5C 225.482,484.839 230.982,478.839 237.5,473.5 Z"/></g>
<g><path style="opacity:1" fill="#c3c0f0" d="M 440.5,497.5 C 439.833,497.5 439.5,497.833 439.5,498.5C 437.037,496.539 434.703,494.372 432.5,492C 433.167,491.333 433.833,491.333 434.5,492C 436.763,493.617 438.763,495.45 440.5,497.5 Z"/></g>
<g><path style="opacity:1" fill="#f2f2fb" d="M 439.5,498.5 C 439.5,497.833 439.833,497.5 440.5,497.5C 457.622,511.233 474.955,524.733 492.5,538C 489.926,541.16 487.259,541.16 484.5,538C 477.452,531.951 470.119,526.284 462.5,521C 454.965,513.298 447.298,505.798 439.5,498.5 Z"/></g>
</svg>
