<svg width="160" height="160" viewBox="0 0 160 160" fill="none" xmlns="http://www.w3.org/2000/svg">
<g clip-path="url(#clip0)">
<path fill-rule="evenodd" clip-rule="evenodd" d="M80 160C102.401 160 129.478 158.836 144 144C158.121 129.574 160 101.782 160 80C160 57.8746 158.516 30.4824 144 16C129.528 1.56212 102.057 0 80 0C57.9327 0 30.4734 1.55064 16 16C1.49503 30.4809 0 57.8845 0 80C0 102.387 1.17997 129.48 16 144C30.4287 158.137 58.2042 160 80 160Z" fill="#15171A"/>
<path fill-rule="evenodd" clip-rule="evenodd" d="M80.301 24.4492C111.042 24.4492 136 49.2521 136 79.8022C136 110.352 111.042 135.155 80.301 135.155C49.5599 135.155 24.602 110.352 24.602 79.8022C24.602 49.2521 49.5599 24.4492 80.301 24.4492ZM36.3405 68.1213C39.1249 45.1912 51.4207 33.7941 79.1491 30.6968C92.3695 29.2199 107.382 40.3893 111.621 45.5337C120.188 55.9291 131 68.3019 131 82.2364C131 101.022 115.855 111.57 99.7007 120.16C92.4199 124.031 84.554 127.778 75.569 127.778C52.4767 127.778 33.0412 109.756 33.0412 86.8067C33.0412 80.7072 35.5781 74.3993 36.3405 68.1213Z" fill="white"/>
<path fill-rule="evenodd" clip-rule="evenodd" d="M80 140.124C113.689 140.124 141 112.983 141 79.5031C141 46.023 113.689 18.882 80 18.882C46.3106 18.882 19 46.023 19 79.5031C19 112.983 46.3106 140.124 80 140.124ZM80 133.389C109.946 133.389 134.222 109.263 134.222 79.5031C134.222 49.743 109.946 25.6177 80 25.6177C50.0539 25.6177 25.7778 49.743 25.7778 79.5031C25.7778 109.263 50.0539 133.389 80 133.389Z" fill="white"/>
</g>
<defs>
<clipPath id="clip0">
<rect width="160" height="160" fill="white"/>
</clipPath>
</defs>
</svg>
