<?xml version="1.0" encoding="UTF-8"?>
<!DOCTYPE svg PUBLIC "-//W3C//DTD SVG 1.1//EN" "http://www.w3.org/Graphics/SVG/1.1/DTD/svg11.dtd">
<svg xmlns="http://www.w3.org/2000/svg" version="1.1" width="64px" height="64px" style="shape-rendering:geometricPrecision; text-rendering:geometricPrecision; image-rendering:optimizeQuality; fill-rule:evenodd; clip-rule:evenodd" xmlns:xlink="http://www.w3.org/1999/xlink">
<g><path style="opacity:0.973" fill="#ff68c4" d="M 28.5,8.5 C 28.5,8.83333 28.5,9.16667 28.5,9.5C 26.8333,9.5 25.1667,9.5 23.5,9.5C 21.8333,9.5 20.1667,9.5 18.5,9.5C 18.5,14.5 18.5,19.5 18.5,24.5C 15.7531,24.8134 13.0865,24.48 10.5,23.5C 12.316,21.1831 14.316,19.0165 16.5,17C 13.7264,14.9362 11.8931,12.4362 11,9.5C 16.7412,8.5251 22.5746,8.19177 28.5,8.5 Z"/></g>
<g><path style="opacity:0.991" fill="#ff7eae" d="M 23.5,9.5 C 23.5,14.5 23.5,19.5 23.5,24.5C 21.8333,24.5 20.1667,24.5 18.5,24.5C 18.5,19.5 18.5,14.5 18.5,9.5C 20.1667,9.5 21.8333,9.5 23.5,9.5 Z"/></g>
<g><path style="opacity:0.991" fill="#ff8aa3" d="M 23.5,9.5 C 25.1667,9.5 26.8333,9.5 28.5,9.5C 28.5,14.5 28.5,19.5 28.5,24.5C 26.8333,24.5 25.1667,24.5 23.5,24.5C 23.5,19.5 23.5,14.5 23.5,9.5 Z"/></g>
<g><path style="opacity:0.991" fill="#ff959a" d="M 28.5,9.5 C 30.1667,9.5 31.8333,9.5 33.5,9.5C 33.5,14.5 33.5,19.5 33.5,24.5C 31.8333,24.5 30.1667,24.5 28.5,24.5C 28.5,19.5 28.5,14.5 28.5,9.5 Z"/></g>
<g><path style="opacity:0.991" fill="#ff9a84" d="M 28.5,9.5 C 28.5,9.16667 28.5,8.83333 28.5,8.5C 31.1667,8.5 33.8333,8.5 36.5,8.5C 37.209,9.40397 38.209,9.73731 39.5,9.5C 39.5,14.5 39.5,19.5 39.5,24.5C 37.5,24.5 35.5,24.5 33.5,24.5C 33.5,19.5 33.5,14.5 33.5,9.5C 31.8333,9.5 30.1667,9.5 28.5,9.5 Z"/></g>
<g><path style="opacity:0.991" fill="#ffb082" d="M 39.5,9.5 C 41.5,9.5 43.5,9.5 45.5,9.5C 45.5,14.5 45.5,19.5 45.5,24.5C 43.5,24.5 41.5,24.5 39.5,24.5C 39.5,19.5 39.5,14.5 39.5,9.5 Z"/></g>
<g><path style="opacity:0.987" fill="#ffbc77" d="M 45.5,9.5 C 47.1667,9.5 48.8333,9.5 50.5,9.5C 50.5,14.5 50.5,19.5 50.5,24.5C 48.8333,24.5 47.1667,24.5 45.5,24.5C 45.5,19.5 45.5,14.5 45.5,9.5 Z"/></g>
<g><path style="opacity:0.991" fill="#ffd063" d="M 36.5,8.5 C 42.69,8.17711 48.69,8.51045 54.5,9.5C 54.5,14.5 54.5,19.5 54.5,24.5C 53.1667,24.5 51.8333,24.5 50.5,24.5C 50.5,19.5 50.5,14.5 50.5,9.5C 48.8333,9.5 47.1667,9.5 45.5,9.5C 43.5,9.5 41.5,9.5 39.5,9.5C 38.209,9.73731 37.209,9.40397 36.5,8.5 Z"/></g>
<g><path style="opacity:0.84" fill="#ffd263" d="M 54.5,9.5 C 55.552,9.35055 56.552,9.51722 57.5,10C 59.3702,12.0396 61.3702,13.8729 63.5,15.5C 63.5,16.5 63.5,17.5 63.5,18.5C 61.3702,20.1271 59.3702,21.9604 57.5,24C 56.552,24.4828 55.552,24.6495 54.5,24.5C 54.5,19.5 54.5,14.5 54.5,9.5 Z"/></g>
<g><path style="opacity:0.997" fill="#ff9a8c" d="M 11.5,30.5 C 13.1667,30.5 14.8333,30.5 16.5,30.5C 16.5,38.1667 16.5,45.8333 16.5,53.5C 15.5084,53.3284 14.8417,53.6618 14.5,54.5C 13.1667,54.5 11.8333,54.5 10.5,54.5C 10.5,54.1667 10.5,53.8333 10.5,53.5C 11.8222,50.2319 12.4888,46.5652 12.5,42.5C 12.4681,38.4185 12.1348,34.4185 11.5,30.5 Z"/></g>
<g><path style="opacity:0.999" fill="#ffb180" d="M 16.5,30.5 C 17.8333,30.5 19.1667,30.5 20.5,30.5C 20.5,38.1667 20.5,45.8333 20.5,53.5C 19.1667,53.5 17.8333,53.5 16.5,53.5C 16.5,45.8333 16.5,38.1667 16.5,30.5 Z"/></g>
<g><path style="opacity:0.959" fill="#ffc46f" d="M 20.5,30.5 C 21.1667,30.5 21.8333,30.5 22.5,30.5C 22.175,38.0191 22.5084,45.3524 23.5,52.5C 20.8774,54.2655 17.8774,54.9321 14.5,54.5C 14.8417,53.6618 15.5084,53.3284 16.5,53.5C 17.8333,53.5 19.1667,53.5 20.5,53.5C 20.5,45.8333 20.5,38.1667 20.5,30.5 Z"/></g>
<g><path style="opacity:0.999" fill="#ffa58b" d="M 42.5,30.5 C 44.1667,30.5 45.8333,30.5 47.5,30.5C 47.5,38.1667 47.5,45.8333 47.5,53.5C 46.1667,53.5 44.8333,53.5 43.5,53.5C 43.799,45.747 43.4657,38.0804 42.5,30.5 Z"/></g>
<g><path style="opacity:0.998" fill="#ffbc76" d="M 47.5,30.5 C 48.8333,30.5 50.1667,30.5 51.5,30.5C 51.5,38.1667 51.5,45.8333 51.5,53.5C 48.9455,54.388 46.2788,54.7214 43.5,54.5C 43.5,54.1667 43.5,53.8333 43.5,53.5C 44.8333,53.5 46.1667,53.5 47.5,53.5C 47.5,45.8333 47.5,38.1667 47.5,30.5 Z"/></g>
<g><path style="opacity:0.87" fill="#ffc46f" d="M 51.5,30.5 C 52.5,30.5 53.5,30.5 54.5,30.5C 54.1795,35.6946 54.5128,40.6946 55.5,45.5C 54.7216,48.5395 53.3883,51.2062 51.5,53.5C 51.5,45.8333 51.5,38.1667 51.5,30.5 Z"/></g>
<g><path style="opacity:0.933" fill="#ffd163" d="M 54.5,30.5 C 56.1667,30.5 57.8333,30.5 59.5,30.5C 58.5758,35.6065 57.2424,40.6065 55.5,45.5C 54.5128,40.6946 54.1795,35.6946 54.5,30.5 Z"/></g>
<g><path style="opacity:0.965" fill="#ff78b4" d="M 8.5,30.5 C 7.86819,38.5729 8.53486,46.2395 10.5,53.5C 10.5,53.8333 10.5,54.1667 10.5,54.5C 6.73072,54.756 3.06405,54.4227 -0.5,53.5C -0.5,52.5 -0.5,51.5 -0.5,50.5C 1.93195,44.7128 4.09862,38.7128 6,32.5C 6.41691,31.244 7.25025,30.5774 8.5,30.5 Z"/></g>
<g><path style="opacity:1" fill="#ff919d" d="M 8.5,30.5 C 9.5,30.5 10.5,30.5 11.5,30.5C 12.1348,34.4185 12.4681,38.4185 12.5,42.5C 12.4888,46.5652 11.8222,50.2319 10.5,53.5C 8.53486,46.2395 7.86819,38.5729 8.5,30.5 Z"/></g>
<g><path style="opacity:0.94" fill="#ffcc69" d="M 22.5,30.5 C 25.1667,30.5 27.8333,30.5 30.5,30.5C 28.565,37.9713 26.2316,45.3046 23.5,52.5C 22.5084,45.3524 22.175,38.0191 22.5,30.5 Z"/></g>
<g><path style="opacity:1" fill="#ff84a8" d="M 38.5,30.5 C 38.5,38.1667 38.5,45.8333 38.5,53.5C 37.5,53.5 36.5,53.5 35.5,53.5C 35.5,46.8333 35.5,40.1667 35.5,33.5C 35.5,32.5 35.5,31.5 35.5,30.5C 36.5,30.5 37.5,30.5 38.5,30.5 Z"/></g>
<g><path style="opacity:1" fill="#ff9195" d="M 38.5,30.5 C 39.8333,30.5 41.1667,30.5 42.5,30.5C 43.4657,38.0804 43.799,45.747 43.5,53.5C 43.5,53.8333 43.5,54.1667 43.5,54.5C 42.1667,54.5 40.8333,54.5 39.5,54.5C 39.5,53.8333 39.1667,53.5 38.5,53.5C 38.5,45.8333 38.5,38.1667 38.5,30.5 Z"/></g>
<g><path style="opacity:0.97" fill="#ff70bd" d="M 35.5,33.5 C 35.5,40.1667 35.5,46.8333 35.5,53.5C 36.5,53.5 37.5,53.5 38.5,53.5C 39.1667,53.5 39.5,53.8333 39.5,54.5C 36.4816,54.6646 33.4816,54.498 30.5,54C 29.9186,53.1074 29.5852,52.1074 29.5,51C 31.0339,44.8955 33.0339,39.0622 35.5,33.5 Z"/></g>
</svg>
